<?xml version="1.0" encoding="UTF-8" standalone="no"?>
<svg
   xmlns:dc="http://purl.org/dc/elements/1.1/"
   xmlns:cc="http://creativecommons.org/ns#"
   xmlns:rdf="http://www.w3.org/1999/02/22-rdf-syntax-ns#"
   xmlns:svg="http://www.w3.org/2000/svg"
   xmlns="http://www.w3.org/2000/svg"
   xmlns:sodipodi="http://sodipodi.sourceforge.net/DTD/sodipodi-0.dtd"
   xmlns:inkscape="http://www.inkscape.org/namespaces/inkscape"
   width="210mm"
   height="297mm"
   viewBox="0 0 210 297"
   version="1.1"
   id="svg8"
   inkscape:export-filename="C:\Users\Usuario\Desktop\Python Estudos\flask_mup\seeds\logo_seeds.png"
   inkscape:export-xdpi="96"
   inkscape:export-ydpi="96"
   inkscape:version="1.0.1 (3bc2e813f5, 2020-09-07)"
   sodipodi:docname="logo_seeds.svg">
  <defs
     id="defs2">
    <inkscape:path-effect
       effect="bspline"
       id="path-effect887"
       is_visible="true"
       lpeversion="1"
       weight="33.333333"
       steps="2"
       helper_size="0"
       apply_no_weight="true"
       apply_with_weight="true"
       only_selected="false" />
    <inkscape:path-effect
       effect="powerstroke"
       id="path-effect883"
       is_visible="true"
       lpeversion="1"
       offset_points="1,3.999995"
       sort_points="true"
       interpolator_type="CubicBezierJohan"
       interpolator_beta="0.2"
       start_linecap_type="zerowidth"
       linejoin_type="extrp_arc"
       miter_limit="4"
       scale_width="1"
       end_linecap_type="zerowidth" />
    <inkscape:path-effect
       effect="skeletal"
       id="path-effect877"
       is_visible="true"
       lpeversion="1"
       pattern="M 0,5 C 0,2.24 2.24,0 5,0 7.76,0 10,2.24 10,5 10,7.76 7.76,10 5,10 2.24,10 0,7.76 0,5 Z"
       copytype="single_stretched"
       prop_scale="1"
       scale_y_rel="false"
       spacing="0"
       normal_offset="0"
       tang_offset="0"
       prop_units="false"
       vertical_pattern="false"
       hide_knot="false"
       fuse_tolerance="0" />
  </defs>
  <sodipodi:namedview
     id="base"
     pagecolor="#ffffff"
     bordercolor="#666666"
     borderopacity="1.0"
     inkscape:pageopacity="0.0"
     inkscape:pageshadow="2"
     inkscape:zoom="0.7"
     inkscape:cx="444.75643"
     inkscape:cy="551.26085"
     inkscape:document-units="mm"
     inkscape:current-layer="layer1"
     inkscape:document-rotation="0"
     showgrid="false"
     inkscape:window-width="1920"
     inkscape:window-height="1027"
     inkscape:window-x="-8"
     inkscape:window-y="-8"
     inkscape:window-maximized="1"
     showguides="true"
     inkscape:guide-bbox="true" />
  <metadata
     id="metadata5">
    <rdf:RDF>
      <cc:Work
         rdf:about="">
        <dc:format>image/svg+xml</dc:format>
        <dc:type
           rdf:resource="http://purl.org/dc/dcmitype/StillImage" />
        <dc:title />
      </cc:Work>
    </rdf:RDF>
  </metadata>
  <g
     inkscape:label="Layer 1"
     inkscape:groupmode="layer"
     id="layer1">
    <g
       id="g1014"
       transform="matrix(0.3738461,0,0,0.3738461,153.75878,185.8993)">
      <path
         style="fill:#000000;stroke-width:7.99999"
         d="m 20.276077,152.4862 c 12.476397,5.98615 24.949614,11.97078 37.41964,17.95387"
         id="path885" />
      <path
         style="fill:none;stroke:#000000;stroke-width:0.264583px;stroke-linecap:butt;stroke-linejoin:miter;stroke-opacity:1"
         d="m 28.024587,134.72132 c 0,0 -39.309519,59.72024 14.74107,82.02083 0,0 8.69345,13.04018 13.60715,16.44197"
         id="path933" />
      <path
         style="fill:none;stroke:#000000;stroke-width:0.264583px;stroke-linecap:butt;stroke-linejoin:miter;stroke-opacity:1"
         d="m 26.890657,161.36864 c 0,0 -1.22842,34.9628 29.95462,68.98066 0,0 1.41741,-5.95313 3.77976,-10.39435"
         id="path935" />
      <path
         style="fill:none;stroke:#000000;stroke-width:0.264583px;stroke-linecap:butt;stroke-linejoin:miter;stroke-opacity:1"
         d="m 101.29515,175.72971 c 0,0 -50.069693,3.05787 -40.670113,44.22524"
         id="path937" />
      <path
         style="fill:none;stroke:#000000;stroke-width:0.264583px;stroke-linecap:butt;stroke-linejoin:miter;stroke-opacity:1"
         d="m 65.881937,221.29917 c 0,0 20.98066,2.27179 24.45516,-23.51972"
         id="path939" />
      <path
         style="fill:none;stroke:#000000;stroke-width:0.264583px;stroke-linecap:butt;stroke-linejoin:miter;stroke-opacity:1"
         d="m 101.29515,175.72971 c 0,0 -6.949013,3.74178 -10.958053,22.04974"
         id="path941" />
      <path
         style="fill:none;stroke:#000000;stroke-width:0.264583px;stroke-linecap:butt;stroke-linejoin:miter;stroke-opacity:1"
         d="m 65.881937,221.29917 c 3.20724,-15.368 20.44612,-34.34414 20.44612,-34.34414 0,0 -19.37704,10.15624 -26.72695,45.03492"
         id="path943" />
      <path
         style="fill:none;stroke:#000000;stroke-width:0.264583px;stroke-linecap:butt;stroke-linejoin:miter;stroke-opacity:1"
         d="m 56.372807,233.18412 c 0,0 0.55561,-1.32781 3.2283,-1.19417"
         id="path945" />
      <path
         style="fill:none;stroke:#000000;stroke-width:0.264583px;stroke-linecap:butt;stroke-linejoin:miter;stroke-opacity:1"
         d="m 26.890657,161.36864 c 0,0 6.91894,34.13902 22.55421,51.91244 0,0 18.76936,-21.79709 -5.21176,-44.50038 -11.96482,-11.32727 -16.38087,-26.55835 -16.20852,-34.05938"
         id="path947"
         sodipodi:nodetypes="ccsc" />
      <path
         style="fill:none;stroke:#000000;stroke-width:0.264583px;stroke-linecap:butt;stroke-linejoin:miter;stroke-opacity:1"
         d="m 59.60111,231.98995 c 0,0 -1.88989,9.44941 3.07104,15.40253"
         id="path951" />
      <path
         style="fill:none;stroke:#000000;stroke-width:0.264583px;stroke-linecap:butt;stroke-linejoin:miter;stroke-opacity:1"
         d="m 62.67215,247.39248 c -1.84263,-3.30729 -2.07885,-15.11904 -2.07885,-15.11904 0,0 5.10267,1.03943 6.61458,7.98474 1.5119,6.94531 -0.75596,8.88244 -1.46466,9.68564 -0.70871,0.8032 -3.63802,1.41741 -4.44122,1.22842 -0.8032,-0.18898 -3.30729,0 -5.76414,-6.14211 -2.45684,-6.14211 0.75595,-11.52827 0.75595,-11.52827 0,0 0.75597,-1.32292 3.3073,-1.51191"
         id="path953" />
    </g>
    <path
       style="fill:#51624f;fill-opacity:1;stroke-width:4.06489"
       d="M 47.564398,109.86187 C 44.886744,107.36328 41.240705,102.85903 36.79846,96.561846 L 35.483767,94.698191 33.453178,93.793869 C 25.257594,90.143988 18.546055,84.998653 14.155166,78.999242 10.4459,73.93115 8.1549064,68.034374 7.2258363,61.163862 6.8900408,58.680692 6.8900607,51.727281 7.2258562,49.086834 8.0158657,42.874877 9.4432317,37.12236 11.702637,31.044721 c 2.138454,-5.752274 4.960349,-11.721112 7.8349,-16.572218 l 0.754768,-1.273757 0.105434,1.13932 c 0.715353,7.729884 3.840199,16.111619 8.744745,23.455995 2.075024,3.107257 3.626622,4.944983 7.548167,8.940113 4.306071,4.38686 6.457834,7.104606 8.401655,10.611553 1.848602,3.335169 3.117702,7.130792 3.644016,10.898494 0.239118,1.711778 0.20582,5.428164 -0.06559,7.320137 -0.542913,3.784587 -1.813431,7.565389 -3.751961,11.165058 -0.783943,1.455716 -2.609477,4.23479 -2.781776,4.23479 -0.14898,0 -1.139075,-1.178396 -2.466845,-2.935982 C 33.121637,79.35989 26.95453,65.797759 22.420819,50.095118 21.515271,46.958728 20.124895,41.559819 19.815547,39.978673 19.70385,39.407777 19.572364,39.071219 19.46101,39.071219 c -0.374336,0 -0.189794,4.405756 0.366036,8.738457 2.219085,17.297737 9.781729,35.390337 21.241551,50.817483 3.318241,4.467011 8.357179,10.407781 8.589185,10.126401 0.0502,-0.0609 0.29302,-0.8367 0.539553,-1.72399 0.658956,-2.37166 1.813341,-5.56737 2.642192,-7.314477 l 0.727566,-1.533597 -0.33319,-1.70884 c -0.60096,-3.08205 -0.784748,-4.975525 -0.789133,-8.129987 -0.005,-3.383481 0.196574,-5.121627 0.919884,-7.943802 2.925927,-11.416203 12.603594,-19.759188 28.029627,-24.163969 3.132099,-0.894348 8.126117,-1.909439 10.687799,-2.172418 0.443639,-0.04554 0.951202,-0.113148 1.127908,-0.150234 0.250023,-0.05247 0.153164,0.08622 -0.4367,0.625323 -2.111623,1.929908 -4.342921,5.420363 -6.140878,9.6063 -1.502123,3.497165 -3.167903,9.241973 -3.88894,13.411876 -0.614601,3.554396 -1.443341,6.206412 -2.824723,9.039233 -2.324957,4.76781 -5.413999,8.031787 -9.642577,10.188604 -3.127762,1.595345 -6.804736,2.515764 -10.050172,2.515764 h -1.3042 l 0.09064,-0.436917 c 0.175106,-0.843894 0.779024,-2.869017 1.212774,-4.066746 2.818064,-7.781767 8.975462,-17.620208 17.110395,-27.339387 2.771394,-3.311115 2.526753,-3.500288 -1.049992,-0.811924 -9.167852,6.890771 -16.972651,19.069057 -21.578534,33.670248 -0.745232,2.36248 -2.035719,7.23254 -2.358247,8.89956 l -0.16256,0.84024 c -1.552536,-0.0267 -2.057507,0.16825 -2.784241,0.66936 -0.209863,0.14943 -0.435854,0.27171 -0.50219,0.27171 -0.06629,0 -0.667296,-0.51014 -1.335466,-1.13362 z"
       id="path949"
       sodipodi:nodetypes="cscsssssscsssssssssssssscsscccsssscccccscccssssccscc"
       inkscape:export-xdpi="96"
       inkscape:export-ydpi="96"
       inkscape:export-filename="C:\Users\Usuario\Desktop\Python Estudos\flask_mup\seeds\logo_seeds.png" />
    <path
       style="fill:#b98853;fill-opacity:1;stroke-width:2.03246"
       d="m 53.675554,128.94968 c -1.416954,-0.30308 -2.436263,-1.07369 -3.509473,-2.65324 -1.083885,-1.59529 -2.111552,-4.07048 -2.440438,-5.87794 -0.381774,-3.96217 -0.927173,-8.82199 2.411751,-10.10715 0.591819,-0.22779 0.975248,-0.25821 2.047137,-0.2589 0.01,-10e-6 -0.04396,0.30507 -0.09054,0.61932 -0.013,8.66036 2.463241,12.54499 3.411538,14.76442 -0.894503,-3.11283 -2.541461,-8.36272 -2.716919,-11.63874 -0.165527,-0.96857 -0.17284,-2.54005 -0.03098,-3.72623 1.179757,0.19426 2.161839,0.75271 2.852826,1.21164 1.674954,1.12341 2.941389,2.99185 3.714034,5.10252 0.731983,1.99958 1.179023,5.08811 1.011191,6.98622 -0.164594,1.86156 -0.622237,3.00494 -1.700578,4.2487 -0.505942,0.58356 -1.387408,0.9812 -2.801535,1.26383 -1.036843,0.20722 -1.438583,0.21943 -2.15799,0.0656 z"
       id="path1008"
       sodipodi:nodetypes="sscsscccccssssss"
       inkscape:export-xdpi="96"
       inkscape:export-ydpi="96"
       inkscape:export-filename="C:\Users\Usuario\Desktop\Python Estudos\flask_mup\seeds\logo_seeds.png" />
    <g
       aria-label="seeds"
       id="text1016"
       style="font-style:normal;font-variant:normal;font-weight:normal;font-stretch:normal;font-size:31.5194px;line-height:1.25;font-family:Tahoma;-inkscape-font-specification:Tahoma;fill:#51624f;fill-opacity:1;stroke-width:0.788;stroke-miterlimit:4;stroke-dasharray:none"
       transform="matrix(1.2684974,0,0,1.2684974,128.49166,30.939713)"
       inkscape:export-xdpi="96"
       inkscape:export-ydpi="96"
       inkscape:export-filename="C:\Users\Usuario\Desktop\Python Estudos\flask_mup\seeds\logo_seeds.png">
      <path
         d="m -20.15896,39.441937 q -1.723717,0 -3.23197,-0.46171 -1.492862,-0.46171 -2.477843,-0.984982 v -3.24736 h 0.153903 q 0.369368,0.292417 0.861859,0.646394 0.507881,0.353978 1.338959,0.738736 0.738736,0.338588 1.615985,0.600223 0.892639,0.261636 1.846839,0.261636 0.692565,0 1.477472,-0.153903 0.784907,-0.169294 1.169666,-0.415539 0.538661,-0.353978 0.769516,-0.754127 0.246245,-0.400148 0.246245,-1.200446 0,-1.031152 -0.569442,-1.554423 -0.554052,-0.523271 -1.985353,-0.877249 -0.554052,-0.138513 -1.446691,-0.323197 -0.892639,-0.184684 -1.646765,-0.400149 -1.969963,-0.569442 -2.862602,-1.754497 -0.892639,-1.200446 -0.892639,-2.893383 0,-2.32394 1.754497,-3.786021 1.754498,-1.462082 4.663271,-1.462082 1.431301,0 2.877992,0.353978 1.446691,0.353977 2.431673,0.892639 v 3.093457 h -0.153904 q -1.108104,-0.877249 -2.477843,-1.38513 -1.354349,-0.507881 -2.739479,-0.507881 -1.431301,0 -2.416282,0.600223 -0.984982,0.600223 -0.984982,1.816059 0,1.077323 0.584833,1.615985 0.584833,0.523271 1.87762,0.861858 0.646394,0.169294 1.431301,0.338588 0.800298,0.153903 1.677547,0.369368 1.908401,0.4771 2.862601,1.585204 0.969591,1.108104 0.969591,3.016505 0,1.108104 -0.446319,2.108475 -0.43093,0.984982 -1.277398,1.692937 -0.92342,0.769516 -2.093085,1.169665 -1.154275,0.400149 -2.908773,0.400149 z"
         style="font-style:normal;font-variant:normal;font-weight:normal;font-stretch:normal;font-family:Tahoma;-inkscape-font-specification:Tahoma;fill:#51624f;fill-opacity:1;stroke-width:0.788;stroke-miterlimit:4;stroke-dasharray:none"
         id="path1020" />
      <path
         d="m -3.2757662,39.426546 q -4.1092186,0 -6.3869877,-2.308549 -2.2623791,-2.323941 -2.2623791,-6.587062 0,-4.201561 2.2008177,-6.679405 2.2008175,-2.493233 5.7559841,-2.493233 1.6005946,0 2.8318211,0.46171 1.23122655,0.46171 2.1546465,1.446691 0.9234199,0.984981 1.4159105,2.416282 0.4924906,1.415911 0.4924906,3.478215 v 1.569814 H -8.9855793 q 0,3.001115 1.5082525,4.586319 1.5082525,1.585204 4.1707799,1.585204 0.9542006,0 1.8622302,-0.215465 0.92341988,-0.215464 1.66215581,-0.554052 Q 1.002746,35.779038 1.5414076,35.455841 2.0800693,35.117253 2.4340469,34.824837 h 0.1692936 v 3.155018 q -0.5078809,0.200074 -1.2620072,0.507881 -0.75412623,0.292416 -1.35434917,0.46171 -0.84646825,0.230855 -1.53903323,0.353978 -0.6771746,0.123122 -1.7237171,0.123122 z M 0.11010678,28.514801 Q 0.07932612,27.345136 -0.16691919,26.498668 -0.4131645,25.652199 -0.87487445,25.067367 -1.3827554,24.420973 -2.1830527,24.082385 q -0.7849069,-0.338587 -1.9545721,-0.338587 -1.1542749,0 -1.9699625,0.353978 -0.8002972,0.338587 -1.4620815,1.000371 -0.646394,0.677175 -0.9849813,1.508253 -0.3385873,0.815687 -0.4309292,1.908401 z"
         style="font-style:normal;font-variant:normal;font-weight:normal;font-stretch:normal;font-family:Tahoma;-inkscape-font-specification:Tahoma;fill:#51624f;fill-opacity:1;stroke-width:0.788;stroke-miterlimit:4;stroke-dasharray:none"
         id="path1022" />
      <path
         d="m 13.315012,39.426546 q -4.1092185,0 -6.3869876,-2.308549 -2.2623788,-2.323941 -2.2623788,-6.587062 0,-4.201561 2.2008175,-6.679405 2.2008174,-2.493233 5.7559839,-2.493233 1.600595,0 2.831821,0.46171 1.231227,0.46171 2.154647,1.446691 0.92342,0.984981 1.41591,2.416282 0.492491,1.415911 0.492491,3.478215 v 1.569814 H 7.605199 q 0,3.001115 1.5082525,4.586319 1.5082525,1.585204 4.1707795,1.585204 0.954201,0 1.862231,-0.215465 0.92342,-0.215464 1.662155,-0.554052 0.784907,-0.353977 1.323569,-0.677174 0.538662,-0.338588 0.892639,-0.631004 h 0.169294 v 3.155018 q -0.507881,0.200074 -1.262007,0.507881 -0.754127,0.292416 -1.35435,0.46171 -0.846468,0.230855 -1.539033,0.353978 -0.677174,0.123122 -1.723717,0.123122 z m 3.385873,-10.911745 q -0.03078,-1.169665 -0.277026,-2.016133 -0.246245,-0.846469 -0.707955,-1.431301 -0.507881,-0.646394 -1.308178,-0.984982 -0.784907,-0.338587 -1.954572,-0.338587 -1.154275,0 -1.969963,0.353978 Q 9.6828938,24.436363 9.0211095,25.098147 8.3747156,25.775322 8.0361283,26.6064 7.697541,27.422087 7.605199,28.514801 Z"
         style="font-style:normal;font-variant:normal;font-weight:normal;font-stretch:normal;font-family:Tahoma;-inkscape-font-specification:Tahoma;fill:#51624f;fill-opacity:1;stroke-width:0.788;stroke-miterlimit:4;stroke-dasharray:none"
         id="path1024" />
      <path
         d="M 35.677167,39.026398 H 32.783784 V 37.2719 q -0.677174,0.569442 -1.169665,0.93881 -0.49249,0.369368 -1.154275,0.677175 -0.615613,0.292416 -1.277397,0.446319 -0.661784,0.169294 -1.539033,0.169294 -1.400521,0 -2.600966,-0.584833 -1.185056,-0.584832 -2.016134,-1.708326 -0.846468,-1.138885 -1.308178,-2.801041 -0.46171,-1.677546 -0.46171,-3.847583 0,-2.262379 0.584832,-3.909144 0.584833,-1.662156 1.615985,-2.893382 0.938811,-1.123495 2.262379,-1.754498 1.338959,-0.646394 2.801041,-0.646394 1.292787,0 2.246988,0.292416 0.954201,0.277026 2.016133,0.877249 v -7.448921 h 2.893383 z m -2.893383,-4.186171 v -9.911373 q -1.077323,-0.523272 -1.939181,-0.723346 -0.846469,-0.200074 -1.84684,-0.200074 -2.231598,0 -3.493606,1.677546 -1.262007,1.662156 -1.262007,4.817174 0,3.031895 0.969591,4.64788 0.969591,1.600595 3.108847,1.600595 1.138885,0 2.29316,-0.507881 1.154275,-0.523272 2.170036,-1.400521 z"
         style="font-style:normal;font-variant:normal;font-weight:normal;font-stretch:normal;font-family:Tahoma;-inkscape-font-specification:Tahoma;fill:#51624f;fill-opacity:1;stroke-width:0.788;stroke-miterlimit:4;stroke-dasharray:none"
         id="path1026" />
      <path
         d="m 44.511214,39.441937 q -1.723717,0 -3.23197,-0.46171 -1.492862,-0.46171 -2.477843,-0.984982 v -3.24736 h 0.153903 q 0.369368,0.292417 0.861859,0.646394 0.507881,0.353978 1.338958,0.738736 0.738736,0.338588 1.615985,0.600223 0.89264,0.261636 1.84684,0.261636 0.692565,0 1.477472,-0.153903 0.784907,-0.169294 1.169665,-0.415539 0.538662,-0.353978 0.769517,-0.754127 0.246245,-0.400148 0.246245,-1.200446 0,-1.031152 -0.569442,-1.554423 -0.554052,-0.523271 -1.985353,-0.877249 -0.554052,-0.138513 -1.446691,-0.323197 -0.892639,-0.184684 -1.646766,-0.400149 -1.969962,-0.569442 -2.862601,-1.754497 -0.89264,-1.200446 -0.89264,-2.893383 0,-2.32394 1.754498,-3.786021 1.754498,-1.462082 4.663271,-1.462082 1.431301,0 2.877992,0.353978 1.446691,0.353977 2.431672,0.892639 v 3.093457 h -0.153903 q -1.108104,-0.877249 -2.477844,-1.38513 -1.354349,-0.507881 -2.739479,-0.507881 -1.4313,0 -2.416282,0.600223 -0.984981,0.600223 -0.984981,1.816059 0,1.077323 0.584833,1.615985 0.584832,0.523271 1.87762,0.861858 0.646394,0.169294 1.431301,0.338588 0.800297,0.153903 1.677546,0.369368 1.908401,0.4771 2.862602,1.585204 0.969591,1.108104 0.969591,3.016505 0,1.108104 -0.44632,2.108475 -0.430929,0.984982 -1.277397,1.692937 -0.92342,0.769516 -2.093086,1.169665 -1.154274,0.400149 -2.908772,0.400149 z"
         style="font-style:normal;font-variant:normal;font-weight:normal;font-stretch:normal;font-family:Tahoma;-inkscape-font-specification:Tahoma;fill:#51624f;fill-opacity:1;stroke-width:0.788;stroke-miterlimit:4;stroke-dasharray:none"
         id="path1028" />
    </g>
    <rect
       style="fill:#51624f;stroke-width:0.792736"
       id="rect853"
       width="26.349806"
       height="26.349806"
       x="6.8035712"
       y="253.63324" />
    <rect
       style="fill:#e6d5aa;fill-opacity:1;stroke-width:0.792736"
       id="rect853-8"
       width="26.349806"
       height="26.349806"
       x="71.357056"
       y="253.63324" />
    <rect
       style="fill:#aebea1;fill-opacity:1;stroke-width:0.792736"
       id="rect880"
       width="26.349806"
       height="26.349806"
       x="39.327675"
       y="253.63324" />
    <rect
       style="fill:#b98853;fill-opacity:1;stroke-width:0.792736"
       id="rect882"
       width="26.349806"
       height="26.349806"
       x="103.88117"
       y="253.63324" />
    <text
       xml:space="preserve"
       style="font-style:normal;font-variant:normal;font-weight:normal;font-stretch:normal;font-size:5.93713px;line-height:1.25;font-family:arial;-inkscape-font-specification:arial;stroke-width:0.148429"
       x="7.2373242"
       y="243.66103"
       id="text886"><tspan
         sodipodi:role="line"
         id="tspan884"
         x="7.2373242"
         y="243.66103"
         style="font-style:normal;font-variant:normal;font-weight:normal;font-stretch:normal;font-family:arial;-inkscape-font-specification:arial;stroke-width:0.148429">Finlandia</tspan><tspan
         sodipodi:role="line"
         x="7.2373242"
         y="251.08244"
         style="font-style:normal;font-variant:normal;font-weight:normal;font-stretch:normal;font-family:arial;-inkscape-font-specification:arial;stroke-width:0.148429"
         id="tspan888">#51624F</tspan></text>
    <text
       xml:space="preserve"
       style="font-style:normal;font-variant:normal;font-weight:normal;font-stretch:normal;font-size:5.93713px;line-height:1.25;font-family:arial;-inkscape-font-specification:arial;stroke-width:0.148429"
       x="71.850876"
       y="243.46123"
       id="text886-5"><tspan
         sodipodi:role="line"
         x="71.850876"
         y="243.46123"
         style="font-style:normal;font-variant:normal;font-weight:normal;font-stretch:normal;font-family:arial;-inkscape-font-specification:arial;stroke-width:0.148429"
         id="tspan888-2">Hampton</tspan><tspan
         sodipodi:role="line"
         x="71.850876"
         y="250.88264"
         style="font-style:normal;font-variant:normal;font-weight:normal;font-stretch:normal;font-family:arial;-inkscape-font-specification:arial;stroke-width:0.148429"
         id="tspan935">#E6D5AA</tspan></text>
    <text
       xml:space="preserve"
       style="font-style:normal;font-variant:normal;font-weight:normal;font-stretch:normal;font-size:5.93713px;line-height:1.25;font-family:arial;-inkscape-font-specification:arial;stroke-width:0.148429"
       x="39.938602"
       y="243.66103"
       id="text925"><tspan
         sodipodi:role="line"
         x="39.938602"
         y="243.66103"
         style="font-style:normal;font-variant:normal;font-weight:normal;font-stretch:normal;font-family:arial;-inkscape-font-specification:arial;stroke-width:0.148429"
         id="tspan923">Norway</tspan><tspan
         sodipodi:role="line"
         x="39.938602"
         y="251.08244"
         style="font-style:normal;font-variant:normal;font-weight:normal;font-stretch:normal;font-family:arial;-inkscape-font-specification:arial;stroke-width:0.148429"
         id="tspan939">#AEBEA1</tspan></text>
    <text
       xml:space="preserve"
       style="font-style:normal;font-variant:normal;font-weight:normal;font-stretch:normal;font-size:5.93713px;line-height:1.25;font-family:arial;-inkscape-font-specification:arial;stroke-width:0.148429"
       x="104.01984"
       y="243.46123"
       id="text931"><tspan
         sodipodi:role="line"
         x="104.01984"
         y="243.46123"
         style="font-style:normal;font-variant:normal;font-weight:normal;font-stretch:normal;font-family:arial;-inkscape-font-specification:arial;stroke-width:0.148429"
         id="tspan943">Muddy Waters</tspan><tspan
         sodipodi:role="line"
         x="104.01984"
         y="250.88264"
         style="font-style:normal;font-variant:normal;font-weight:normal;font-stretch:normal;font-family:arial;-inkscape-font-specification:arial;stroke-width:0.148429"
         id="tspan947">#B98853</tspan></text>
    <g
       id="g1025"
       transform="translate(0,-1.0583333)">
      <g
         aria-label="seeds"
         id="text1016-7"
         style="font-style:normal;font-variant:normal;font-weight:normal;font-stretch:normal;font-size:31.5194px;line-height:1.25;font-family:Tahoma;-inkscape-font-specification:Tahoma;fill:#51624f;fill-opacity:1;stroke-width:0.788;stroke-miterlimit:4;stroke-dasharray:none"
         transform="matrix(1.2684974,0,0,1.2476496,71.024422,120.55484)"
         inkscape:export-xdpi="96"
         inkscape:export-ydpi="96"
         inkscape:export-filename="C:\Users\Usuario\Desktop\Python Estudos\flask_mup\seeds\linear_logo_seeds.png">
        <path
           d="m -20.15896,39.441937 q -1.723717,0 -3.23197,-0.46171 -1.492862,-0.46171 -2.477843,-0.984982 v -3.24736 h 0.153903 q 0.369368,0.292417 0.861859,0.646394 0.507881,0.353978 1.338959,0.738736 0.738736,0.338588 1.615985,0.600223 0.892639,0.261636 1.846839,0.261636 0.692565,0 1.477472,-0.153903 0.784907,-0.169294 1.169666,-0.415539 0.538661,-0.353978 0.769516,-0.754127 0.246245,-0.400148 0.246245,-1.200446 0,-1.031152 -0.569442,-1.554423 -0.554052,-0.523271 -1.985353,-0.877249 -0.554052,-0.138513 -1.446691,-0.323197 -0.892639,-0.184684 -1.646765,-0.400149 -1.969963,-0.569442 -2.862602,-1.754497 -0.892639,-1.200446 -0.892639,-2.893383 0,-2.32394 1.754497,-3.786021 1.754498,-1.462082 4.663271,-1.462082 1.431301,0 2.877992,0.353978 1.446691,0.353977 2.431673,0.892639 v 3.093457 h -0.153904 q -1.108104,-0.877249 -2.477843,-1.38513 -1.354349,-0.507881 -2.739479,-0.507881 -1.431301,0 -2.416282,0.600223 -0.984982,0.600223 -0.984982,1.816059 0,1.077323 0.584833,1.615985 0.584833,0.523271 1.87762,0.861858 0.646394,0.169294 1.431301,0.338588 0.800298,0.153903 1.677547,0.369368 1.908401,0.4771 2.862601,1.585204 0.969591,1.108104 0.969591,3.016505 0,1.108104 -0.446319,2.108475 -0.43093,0.984982 -1.277398,1.692937 -0.92342,0.769516 -2.093085,1.169665 -1.154275,0.400149 -2.908773,0.400149 z"
           style="font-style:normal;font-variant:normal;font-weight:normal;font-stretch:normal;font-family:Tahoma;-inkscape-font-specification:Tahoma;fill:#51624f;fill-opacity:1;stroke-width:0.788;stroke-miterlimit:4;stroke-dasharray:none"
           id="path1020-1" />
        <path
           d="m -3.2757662,39.426546 q -4.1092186,0 -6.3869877,-2.308549 -2.2623791,-2.323941 -2.2623791,-6.587062 0,-4.201561 2.2008177,-6.679405 2.2008175,-2.493233 5.7559841,-2.493233 1.6005946,0 2.8318211,0.46171 1.23122655,0.46171 2.1546465,1.446691 0.9234199,0.984981 1.4159105,2.416282 0.4924906,1.415911 0.4924906,3.478215 v 1.569814 H -8.9855793 q 0,3.001115 1.5082525,4.586319 1.5082525,1.585204 4.1707799,1.585204 0.9542006,0 1.8622302,-0.215465 0.92341988,-0.215464 1.66215581,-0.554052 Q 1.002746,35.779038 1.5414076,35.455841 2.0800693,35.117253 2.4340469,34.824837 h 0.1692936 v 3.155018 q -0.5078809,0.200074 -1.2620072,0.507881 -0.75412623,0.292416 -1.35434917,0.46171 -0.84646825,0.230855 -1.53903323,0.353978 -0.6771746,0.123122 -1.7237171,0.123122 z M 0.11010678,28.514801 Q 0.07932612,27.345136 -0.16691919,26.498668 -0.4131645,25.652199 -0.87487445,25.067367 -1.3827554,24.420973 -2.1830527,24.082385 q -0.7849069,-0.338587 -1.9545721,-0.338587 -1.1542749,0 -1.9699625,0.353978 -0.8002972,0.338587 -1.4620815,1.000371 -0.646394,0.677175 -0.9849813,1.508253 -0.3385873,0.815687 -0.4309292,1.908401 z"
           style="font-style:normal;font-variant:normal;font-weight:normal;font-stretch:normal;font-family:Tahoma;-inkscape-font-specification:Tahoma;fill:#51624f;fill-opacity:1;stroke-width:0.788;stroke-miterlimit:4;stroke-dasharray:none"
           id="path1022-5" />
        <path
           d="m 13.315012,39.426546 q -4.1092185,0 -6.3869876,-2.308549 -2.2623788,-2.323941 -2.2623788,-6.587062 0,-4.201561 2.2008175,-6.679405 2.2008174,-2.493233 5.7559839,-2.493233 1.600595,0 2.831821,0.46171 1.231227,0.46171 2.154647,1.446691 0.92342,0.984981 1.41591,2.416282 0.492491,1.415911 0.492491,3.478215 v 1.569814 H 7.605199 q 0,3.001115 1.5082525,4.586319 1.5082525,1.585204 4.1707795,1.585204 0.954201,0 1.862231,-0.215465 0.92342,-0.215464 1.662155,-0.554052 0.784907,-0.353977 1.323569,-0.677174 0.538662,-0.338588 0.892639,-0.631004 h 0.169294 v 3.155018 q -0.507881,0.200074 -1.262007,0.507881 -0.754127,0.292416 -1.35435,0.46171 -0.846468,0.230855 -1.539033,0.353978 -0.677174,0.123122 -1.723717,0.123122 z m 3.385873,-10.911745 q -0.03078,-1.169665 -0.277026,-2.016133 -0.246245,-0.846469 -0.707955,-1.431301 -0.507881,-0.646394 -1.308178,-0.984982 -0.784907,-0.338587 -1.954572,-0.338587 -1.154275,0 -1.969963,0.353978 Q 9.6828938,24.436363 9.0211095,25.098147 8.3747156,25.775322 8.0361283,26.6064 7.697541,27.422087 7.605199,28.514801 Z"
           style="font-style:normal;font-variant:normal;font-weight:normal;font-stretch:normal;font-family:Tahoma;-inkscape-font-specification:Tahoma;fill:#51624f;fill-opacity:1;stroke-width:0.788;stroke-miterlimit:4;stroke-dasharray:none"
           id="path1024-8" />
        <path
           d="M 35.677167,39.026398 H 32.783784 V 37.2719 q -0.677174,0.569442 -1.169665,0.93881 -0.49249,0.369368 -1.154275,0.677175 -0.615613,0.292416 -1.277397,0.446319 -0.661784,0.169294 -1.539033,0.169294 -1.400521,0 -2.600966,-0.584833 -1.185056,-0.584832 -2.016134,-1.708326 -0.846468,-1.138885 -1.308178,-2.801041 -0.46171,-1.677546 -0.46171,-3.847583 0,-2.262379 0.584832,-3.909144 0.584833,-1.662156 1.615985,-2.893382 0.938811,-1.123495 2.262379,-1.754498 1.338959,-0.646394 2.801041,-0.646394 1.292787,0 2.246988,0.292416 0.954201,0.277026 2.016133,0.877249 v -7.448921 h 2.893383 z m -2.893383,-4.186171 v -9.911373 q -1.077323,-0.523272 -1.939181,-0.723346 -0.846469,-0.200074 -1.84684,-0.200074 -2.231598,0 -3.493606,1.677546 -1.262007,1.662156 -1.262007,4.817174 0,3.031895 0.969591,4.64788 0.969591,1.600595 3.108847,1.600595 1.138885,0 2.29316,-0.507881 1.154275,-0.523272 2.170036,-1.400521 z"
           style="font-style:normal;font-variant:normal;font-weight:normal;font-stretch:normal;font-family:Tahoma;-inkscape-font-specification:Tahoma;fill:#51624f;fill-opacity:1;stroke-width:0.788;stroke-miterlimit:4;stroke-dasharray:none"
           id="path1026-6" />
        <path
           d="m 44.511214,39.441937 q -1.723717,0 -3.23197,-0.46171 -1.492862,-0.46171 -2.477843,-0.984982 v -3.24736 h 0.153903 q 0.369368,0.292417 0.861859,0.646394 0.507881,0.353978 1.338958,0.738736 0.738736,0.338588 1.615985,0.600223 0.89264,0.261636 1.84684,0.261636 0.692565,0 1.477472,-0.153903 0.784907,-0.169294 1.169665,-0.415539 0.538662,-0.353978 0.769517,-0.754127 0.246245,-0.400148 0.246245,-1.200446 0,-1.031152 -0.569442,-1.554423 -0.554052,-0.523271 -1.985353,-0.877249 -0.554052,-0.138513 -1.446691,-0.323197 -0.892639,-0.184684 -1.646766,-0.400149 -1.969962,-0.569442 -2.862601,-1.754497 -0.89264,-1.200446 -0.89264,-2.893383 0,-2.32394 1.754498,-3.786021 1.754498,-1.462082 4.663271,-1.462082 1.431301,0 2.877992,0.353978 1.446691,0.353977 2.431672,0.892639 v 3.093457 h -0.153903 q -1.108104,-0.877249 -2.477844,-1.38513 -1.354349,-0.507881 -2.739479,-0.507881 -1.4313,0 -2.416282,0.600223 -0.984981,0.600223 -0.984981,1.816059 0,1.077323 0.584833,1.615985 0.584832,0.523271 1.87762,0.861858 0.646394,0.169294 1.431301,0.338588 0.800297,0.153903 1.677546,0.369368 1.908401,0.4771 2.862602,1.585204 0.969591,1.108104 0.969591,3.016505 0,1.108104 -0.44632,2.108475 -0.430929,0.984982 -1.277397,1.692937 -0.92342,0.769516 -2.093086,1.169665 -1.154274,0.400149 -2.908772,0.400149 z"
           style="font-style:normal;font-variant:normal;font-weight:normal;font-stretch:normal;font-family:Tahoma;-inkscape-font-specification:Tahoma;fill:#51624f;fill-opacity:1;stroke-width:0.788;stroke-miterlimit:4;stroke-dasharray:none"
           id="path1028-8" />
      </g>
      <g
         id="g993"
         inkscape:export-filename="C:\Users\Usuario\Desktop\Python Estudos\flask_mup\seeds\linear_logo_seeds.png"
         inkscape:export-xdpi="96"
         inkscape:export-ydpi="96"
         transform="matrix(1.0060091,0,0,1.0060091,-289.02999,47.499322)">
        <path
           style="fill:#51624f;fill-opacity:1;stroke-width:1.06156"
           d="m 304.96626,116.56397 c -0.69928,-0.65252 -1.65145,-1.82881 -2.81155,-3.47334 l -0.34334,-0.48669 -0.5303,-0.23617 c -2.1403,-0.95318 -3.89303,-2.2969 -5.03973,-3.86366 -0.96868,-1.32354 -1.56698,-2.86351 -1.80961,-4.65776 -0.0877,-0.64849 -0.0877,-2.46439 0,-3.15395 0.20632,-1.622272 0.57908,-3.124559 1.16913,-4.711752 0.55846,-1.502223 1.29541,-3.061003 2.04611,-4.327882 l 0.1971,-0.332645 0.0275,0.297536 c 0.18682,2.018681 1.00288,4.207596 2.28372,6.125601 0.5419,0.811469 0.94711,1.291397 1.97123,2.334732 1.12454,1.14565 1.68648,1.85539 2.19411,2.77124 0.48277,0.87099 0.8142,1.86223 0.95165,2.84618 0.0625,0.44703 0.0538,1.41758 -0.0171,1.91167 -0.14178,0.98836 -0.47358,1.97573 -0.97984,2.91579 -0.20472,0.38016 -0.68147,1.10593 -0.72646,1.10593 -0.0389,0 -0.29747,-0.30775 -0.64423,-0.76674 -1.71016,-2.26376 -3.32072,-5.80555 -4.50471,-9.90635 -0.23649,-0.81907 -0.59959,-2.229013 -0.68038,-2.641934 -0.0292,-0.149092 -0.0635,-0.236984 -0.0926,-0.236984 -0.0978,0 -0.0496,1.150575 0.0956,2.282078 0.57952,4.51735 2.55453,9.24229 5.54729,13.27113 0.86657,1.16657 2.1825,2.71801 2.24309,2.64453 0.0131,-0.0159 0.0765,-0.21851 0.14091,-0.45023 0.17208,-0.61936 0.47355,-1.45392 0.69001,-1.91018 l 0.19001,-0.4005 -0.087,-0.44628 c -0.15695,-0.80488 -0.20494,-1.29937 -0.20609,-2.12317 -10e-4,-0.8836 0.0513,-1.33752 0.24023,-2.07454 0.76412,-2.98138 3.29146,-5.16017 7.32002,-6.31049 0.81796,-0.23356 2.12216,-0.49866 2.79115,-0.56734 0.11586,-0.0119 0.24841,-0.0296 0.29456,-0.0392 0.0653,-0.0137 0.04,0.0225 -0.11405,0.1633 -0.55146,0.504 -1.13416,1.41555 -1.60371,2.50872 -0.39228,0.91329 -0.8273,2.41357 -1.01561,3.50255 -0.1605,0.92824 -0.37693,1.62082 -0.73768,2.36062 -0.60717,1.24513 -1.41388,2.09753 -2.51819,2.66079 -0.81682,0.41662 -1.77707,0.657 -2.62463,0.657 h -0.34059 l 0.0237,-0.11411 c 0.0457,-0.22038 0.20344,-0.74925 0.31672,-1.06204 0.73594,-2.03223 2.34397,-4.60157 4.46843,-7.13976 0.72375,-0.86471 0.65987,-0.91411 -0.27421,-0.21204 -2.39421,1.79955 -4.43246,4.97994 -5.6353,8.79309 -0.19462,0.61696 -0.53163,1.88878 -0.61586,2.32413 l -0.0425,0.21943 c -0.40544,-0.007 -0.53732,0.044 -0.72711,0.1748 -0.0548,0.039 -0.11382,0.071 -0.13115,0.071 -0.0173,0 -0.17426,-0.13322 -0.34876,-0.29604 z"
           id="path949-0"
           sodipodi:nodetypes="cscsssssscsssssssssssssscsscccsssscccccscccssssccscc"
           inkscape:export-xdpi="96"
           inkscape:export-ydpi="96" />
        <path
           style="fill:#b98853;fill-opacity:1;stroke-width:0.530782"
           d="m 306.56221,121.5488 c -0.37005,-0.0791 -0.63624,-0.2804 -0.91651,-0.6929 -0.28306,-0.41661 -0.55144,-1.06302 -0.63733,-1.53504 -0.0997,-1.03473 -0.24213,-2.30389 0.62984,-2.63951 0.15455,-0.0595 0.25468,-0.0674 0.53461,-0.0676 0.003,0 -0.0115,0.0797 -0.0236,0.16174 -0.004,2.26168 0.64328,3.27616 0.89093,3.85577 -0.2336,-0.81292 -0.66371,-2.18394 -0.70953,-3.03949 -0.0432,-0.25294 -0.0451,-0.66334 -0.008,-0.97311 0.30809,0.0507 0.56457,0.19657 0.74502,0.31642 0.43742,0.29338 0.76815,0.78133 0.96993,1.33254 0.19116,0.5222 0.30791,1.32877 0.26408,1.82447 -0.043,0.48615 -0.1625,0.78475 -0.44411,1.10956 -0.13213,0.1524 -0.36233,0.25624 -0.73163,0.33005 -0.27078,0.0541 -0.37569,0.0573 -0.56357,0.0171 z"
           id="path1008-9"
           sodipodi:nodetypes="sscsscccccssssss"
           inkscape:export-xdpi="96"
           inkscape:export-ydpi="96" />
      </g>
    </g>
    <g
       id="g999"
       transform="matrix(1.0060091,0,0,1.0060091,-289.60385,95.811582)"
       inkscape:export-filename="C:\Users\Usuario\Desktop\Python Estudos\flask_mup\seeds\seeds_favicon.png"
       inkscape:export-xdpi="96"
       inkscape:export-ydpi="96">
      <path
         style="fill:#51624f;fill-opacity:1;stroke-width:1.06156"
         d="m 304.96626,116.56397 c -0.69928,-0.65252 -1.65145,-1.82881 -2.81155,-3.47334 l -0.34334,-0.48669 -0.5303,-0.23617 c -2.1403,-0.95318 -3.89303,-2.2969 -5.03973,-3.86366 -0.96868,-1.32354 -1.56698,-2.86351 -1.80961,-4.65776 -0.0877,-0.64849 -0.0877,-2.46439 0,-3.15395 0.20632,-1.622272 0.57908,-3.124559 1.16913,-4.711752 0.55846,-1.502223 1.29541,-3.061003 2.04611,-4.327882 l 0.1971,-0.332645 0.0275,0.297536 c 0.18682,2.018681 1.00288,4.207596 2.28372,6.125601 0.5419,0.811469 0.94711,1.291397 1.97123,2.334732 1.12454,1.14565 1.68648,1.85539 2.19411,2.77124 0.48277,0.87099 0.8142,1.86223 0.95165,2.84618 0.0625,0.44703 0.0538,1.41758 -0.0171,1.91167 -0.14178,0.98836 -0.47358,1.97573 -0.97984,2.91579 -0.20472,0.38016 -0.68147,1.10593 -0.72646,1.10593 -0.0389,0 -0.29747,-0.30775 -0.64423,-0.76674 -1.71016,-2.26376 -3.32072,-5.80555 -4.50471,-9.90635 -0.23649,-0.81907 -0.59959,-2.229013 -0.68038,-2.641934 -0.0292,-0.149092 -0.0635,-0.236984 -0.0926,-0.236984 -0.0978,0 -0.0496,1.150575 0.0956,2.282078 0.57952,4.51735 2.55453,9.24229 5.54729,13.27113 0.86657,1.16657 2.1825,2.71801 2.24309,2.64453 0.0131,-0.0159 0.0765,-0.21851 0.14091,-0.45023 0.17208,-0.61936 0.47355,-1.45392 0.69001,-1.91018 l 0.19001,-0.4005 -0.087,-0.44628 c -0.15695,-0.80488 -0.20494,-1.29937 -0.20609,-2.12317 -10e-4,-0.8836 0.0513,-1.33752 0.24023,-2.07454 0.76412,-2.98138 3.29146,-5.16017 7.32002,-6.31049 0.81796,-0.23356 2.12216,-0.49866 2.79115,-0.56734 0.11586,-0.0119 0.24841,-0.0296 0.29456,-0.0392 0.0653,-0.0137 0.04,0.0225 -0.11405,0.1633 -0.55146,0.504 -1.13416,1.41555 -1.60371,2.50872 -0.39228,0.91329 -0.8273,2.41357 -1.01561,3.50255 -0.1605,0.92824 -0.37693,1.62082 -0.73768,2.36062 -0.60717,1.24513 -1.41388,2.09753 -2.51819,2.66079 -0.81682,0.41662 -1.77707,0.657 -2.62463,0.657 h -0.34059 l 0.0237,-0.11411 c 0.0457,-0.22038 0.20344,-0.74925 0.31672,-1.06204 0.73594,-2.03223 2.34397,-4.60157 4.46843,-7.13976 0.72375,-0.86471 0.65987,-0.91411 -0.27421,-0.21204 -2.39421,1.79955 -4.43246,4.97994 -5.6353,8.79309 -0.19462,0.61696 -0.53163,1.88878 -0.61586,2.32413 l -0.0425,0.21943 c -0.40544,-0.007 -0.53732,0.044 -0.72711,0.1748 -0.0548,0.039 -0.11382,0.071 -0.13115,0.071 -0.0173,0 -0.17426,-0.13322 -0.34876,-0.29604 z"
         id="path995"
         sodipodi:nodetypes="cscsssssscsssssssssssssscsscccsssscccccscccssssccscc"
         inkscape:export-xdpi="96"
         inkscape:export-ydpi="96" />
      <path
         style="fill:#b98853;fill-opacity:1;stroke-width:0.530782"
         d="m 306.56221,121.5488 c -0.37005,-0.0791 -0.63624,-0.2804 -0.91651,-0.6929 -0.28306,-0.41661 -0.55144,-1.06302 -0.63733,-1.53504 -0.0997,-1.03473 -0.24213,-2.30389 0.62984,-2.63951 0.15455,-0.0595 0.25468,-0.0674 0.53461,-0.0676 0.003,0 -0.0115,0.0797 -0.0236,0.16174 -0.004,2.26168 0.64328,3.27616 0.89093,3.85577 -0.2336,-0.81292 -0.66371,-2.18394 -0.70953,-3.03949 -0.0432,-0.25294 -0.0451,-0.66334 -0.008,-0.97311 0.30809,0.0507 0.56457,0.19657 0.74502,0.31642 0.43742,0.29338 0.76815,0.78133 0.96993,1.33254 0.19116,0.5222 0.30791,1.32877 0.26408,1.82447 -0.043,0.48615 -0.1625,0.78475 -0.44411,1.10956 -0.13213,0.1524 -0.36233,0.25624 -0.73163,0.33005 -0.27078,0.0541 -0.37569,0.0573 -0.56357,0.0171 z"
         id="path997"
         sodipodi:nodetypes="sscsscccccssssss"
         inkscape:export-xdpi="96"
         inkscape:export-ydpi="96" />
    </g>
  </g>
</svg>
